<?xml version="1.0" encoding="UTF-8"?>
<svg id="Layer_1" xmlns="http://www.w3.org/2000/svg" viewBox="0 0 515.63 542.1">
  <path d="M250.89,2.15L32.8,152.37c-11.45,7.89-5.87,25.82,8.03,25.82h440.26c11.97,0,16.78-15.45,6.92-22.24L265.85,2.92c-4.84-3.33-11.23-3.33-16.07,0L27.61,155.95c-9.86,6.79-5.05,22.24,6.92,22.24h440.26c13.9,0,19.48-17.94,8.03-25.82L264.73,2.15c-4.17-2.87-9.67-2.87-13.84,0Z"/>
  <rect x="48.54" y="186.38" width="418.55" height="32.19" rx="15.17" ry="15.17"/>
  <rect x="48.54" y="435.37" width="418.55" height="32.19" rx="15.17" ry="15.17"/>
  <rect x="31.57" y="472.64" width="452.49" height="32.19" rx="15.17" ry="15.17"/>
  <rect x="0" y="509.91" width="515.63" height="32.19" rx="15.17" ry="15.17"/>
  <rect x="84.15" y="229.61" width="39.38" height="190.73" rx="6.08" ry="6.08"/>
  <rect x="187.09" y="229.61" width="39.38" height="190.73" rx="6.08" ry="6.08"/>
  <rect x="290.04" y="229.61" width="39.38" height="190.73" rx="6.08" ry="6.08"/>
  <rect x="392.99" y="229.61" width="39.38" height="190.73" rx="6.08" ry="6.08"/>
</svg>